Coordinates
version=1
nRows=16
nColumns=22
inDegrees=yes

Units are S.I. units (second, meters, Newtons, ...)
If the header above contains a line with 'inDegrees', this indicates whether rotational values are in degrees (yes) or radians (no).

endheader
time	pelvis_tilt	pelvis_list	pelvis_rotation	pelvis_tx	pelvis_ty	pelvis_tz	hip_flexion_r	hip_adduction_r	hip_rotation_r	knee_angle_r	ankle_angle_r	subtalar_angle_r	hip_flexion_l	hip_adduction_l	hip_rotation_l	knee_angle_l	ankle_angle_l	subtalar_angle_l	lumbar_extension	lumbar_bending	lumbar_rotation
      2.37000000	     -2.23395543	     -4.18404920	    -33.96614825	     -0.61654112	      1.01011952	     -0.21590421	      9.39065907	     11.11874589	     -5.45618740	    -20.50938446	     10.50891215	    -11.15396936	     21.02558433	     -8.04705831	     -1.65324937	    -60.28566875	     10.07899464	      3.73693623	    -15.31979296	      5.17264683	      3.25468494
      2.38000000	     -2.29603304	     -4.02803603	    -34.58213035	     -0.61167695	      1.01052486	     -0.21237983	      8.91557682	     11.08096642	     -4.84537813	    -20.17660886	     10.68095824	    -11.12782076	     21.83979894	     -7.98697731	     -1.12388004	    -59.07323188	     10.23080526	      3.63329318	    -15.32793270	      5.01491548	      3.81698344
      2.39000000	     -2.36508851	     -3.87329807	    -35.20232350	     -0.60680661	      1.01083789	     -0.20884423	      8.46156510	     11.04064180	     -4.22566736	    -19.87277403	     10.86558306	    -11.09995884	     22.59421559	     -7.93451995	     -0.60387375	    -57.67970895	     10.36061075	      3.57887748	    -15.33123431	      4.86456786	      4.35521232
      2.40000000	     -2.43878391	     -3.72269215	    -35.82088303	     -0.60190160	      1.01106532	     -0.20532638	      8.02615092	     10.99610606	     -3.59473940	    -19.60066799	     11.06066619	    -11.07104538	     23.28503855	     -7.89486373	     -0.10256465	    -56.11393776	     10.46714285	      3.56900877	    -15.33531915	      4.73264778	      4.86694347
      2.41000000	     -2.51604285	     -3.58191095	    -36.43282271	     -0.59696373	      1.01120722	     -0.20178817	      7.60428150	     10.95469201	     -2.96232670	    -19.36081078	     11.26575613	    -11.04088358	     23.90841944	     -7.87524558	      0.38472965	    -54.38976997	     10.55558551	      3.59846373	    -15.34145928	      4.61215043	      5.34271178
      2.42000000	     -2.59642919	     -3.45170148	    -37.03165293	     -0.59195027	      1.01126989	     -0.19826361	      7.19308138	     10.91290537	     -2.32978053	    -19.15148051	     11.48178686	    -11.00867778	     24.46185827	     -7.87299939	      0.85523555	    -52.51294994	     10.63488107	      3.66189293	    -15.34994605	      4.51487952	      5.77662692
      2.43000000	     -2.67963167	     -3.33167792	    -37.61426223	     -0.58684704	      1.01125376	     -0.19474475	      6.78978275	     10.87014779	     -1.70500318	    -18.96881585	     11.71097439	    -10.97357383	     24.94509974	     -7.88747598	      1.30675195	    -50.49348985	     10.71318533	      3.75536573	    -15.35844335	      4.43922985	      6.16767481
      2.44000000	     -2.76617606	     -3.22389271	    -38.17591911	     -0.58164335	      1.01116089	     -0.19122272	      6.38935271	     10.82836390	     -1.09805274	    -18.80591519	     11.95154167	    -10.93338985	     25.35878521	     -7.91586104	      1.75034107	    -48.34402773	     10.79145103	      3.88011325	    -15.36666573	      4.38468740	      6.50883950
      2.45000000	     -2.85853321	     -3.12147595	    -38.71655186	     -0.57632080	      1.01098604	     -0.18769771	      5.99247065	     10.78173186	     -0.51453511	    -18.65287851	     12.20682364	    -10.89031316	     25.70970742	     -7.95279723	      2.18127789	    -46.07613717	     10.87052659	      4.03624643	    -15.36495990	      4.34958649	      6.80009017
      2.46000000	     -2.94932353	     -3.02744522	    -39.24308777	     -0.57089577	      1.01074658	     -0.18414560	      5.58949649	     10.73033123	      0.05100721	    -18.50913677	     12.47486606	    -10.83815144	     25.98865622	     -7.99559631	      2.60388896	    -43.70283392	     10.93906030	      4.23649107	    -15.36344644	      4.32539685	      7.05149076
      2.47000000	     -3.03723056	     -2.93976595	    -39.75698671	     -0.56536466	      1.01044610	     -0.18055625	      5.17671344	     10.67049324	      0.59444624	    -18.36759349	     12.75642022	    -10.77553732	     26.19693989	     -8.04013870	      3.02157770	    -41.24000054	     10.99148951	      4.48265455	    -15.36056158	      4.30743357	      7.26396313
      2.48000000	     -3.12170371	     -2.85237429	    -40.26042341	     -0.55971266	      1.01008291	     -0.17692221	      4.75431988	     10.59594726	      1.11493455	    -18.22326883	     13.05503183	    -10.70358723	     26.33909531	     -8.07914527	      3.43525806	    -38.70559880	     11.02235486	      4.76543366	    -15.34874173	      4.29248076	      7.44424971
      2.49000000	     -3.20205174	     -2.76452397	    -40.75459936	     -0.55393164	      1.00965820	     -0.17321707	      4.31633576	     10.50507767	      1.61056111	    -18.06708158	     13.37084936	    -10.62058837	     26.41742078	     -8.11042255	      3.85501845	    -36.12110530	     11.02785067	      5.07904633	    -15.32500516	      4.27616806	      7.59196218
      2.50000000	     -3.26816183	     -2.68407465	    -41.24128129	     -0.54803159	      1.00918838	     -0.16942923	      3.85190453	     10.39811143	      2.08353160	    -17.90339980	     13.70375571	    -10.51943692	     26.42188692	     -8.13128785	      4.29331068	    -33.51109996	     11.00719644	      5.43351527	    -15.30477374	      4.25404018	      7.71520452
      2.51000000	     -3.30718529	     -2.65193628	    -41.71372097	     -0.54197910	      1.00872945	     -0.16556489	      3.31260169	     10.29761600	      2.54041888	    -17.71766696	     14.02102647	    -10.36397390	     26.32169671	     -8.15460998	      4.78981872	    -30.90892034	     11.00025967	      5.89746220	    -15.33069948	      4.25846693	      7.80826492
      2.52000000	     -3.33963607	     -2.59042362	    -42.18701958	     -0.53576923	      1.00816705	     -0.16158882	      2.78205989	     10.15366685	      2.96842050	    -17.53591399	     14.38368518	    -10.21717814	     26.18812059	     -8.14273083	      5.30661579	    -28.34251646	     10.95797406	      6.33303359	    -15.31329558	      4.23201620	      7.88810633
